# xmcd CD database file
#
# Track frame offsets:
#	150
#	19235
#	37789
#	57261
#	76691
#	96324
#	118865
#	139228
#	153937
#	171074
#	192492
#	217667
#	239996
#
# Disc length: 3489 seconds
#
# Revision: 6
# Processed by: cddbd v1.5.2PL0 Copyright (c) Steve Scherf et al.
# Submitted via: CDex 1.70beta3
#
DISCID=ac0d9f0d
DTITLE=福原美穂 - Music is My Life
DYEAR=2010
DGENRE=JPop
TTITLE0=RISING LIKE A FLAME
TTITLE1=HANABI SKY
TTITLE2=未来-ミライ-
TTITLE3=LET IT OUT -album version-
TTITLE4=もしかして
TTITLE5=Apologies (feat.sleepy.ab)
TTITLE6=Cry No More -album version-
TTITLE7=Baby Baby (feat.Laura Izibor)
TTITLE8=なんで泣きたくなっちゃうんだろう
TTITLE9=TOUCH and LOVE
TTITLE10=Sotsugyou
TTITLE11=THANK YOU
TTITLE12=あいのうた
EXTD=YEAR: 2010
EXTT0=
EXTT1=
EXTT2=
EXTT3=
EXTT4=
EXTT5=
EXTT6=
EXTT7=
EXTT8=
EXTT9=
EXTT10=
EXTT11=
EXTT12=
PLAYORDER=
